<svg xmlns="http://www.w3.org/2000/svg" viewBox="0 0 762.97 88.48"><g id="Ebene_2" data-name="Ebene 2"><g id="Ebene_6" data-name="Ebene 6"><path d="M182,28.25l-3.66,11.29h82.3L253.28,62.1H171L162.56,88H129.38c32.73-5,43.79-51.12,23.51-73.25,0,0,1.85-5.53,4.09-11.71H290.79l-8.2,25.22Z"/><path d="M279.55,88H241L325.53,3h36.9L392.3,88H355.8L336.7,27.65"/><path d="M618,3l-27.6,85H557.18l14.16-43.58L514.71,88H474.88L446.51,44.57,432.41,88H399.22l27.6-85H460l41.33,64.51L584.79,3Z"/><path d="M743.82,62.77,735.63,88H601.56l27.6-85H763l-8.2,25.22H654.15L650.7,38.87H733l-4.31,13.28h-82.3l-3.45,10.62Z"/><path d="M154.74,44.24c0,23.23-14.79,44.24-59.68,44.24H0V0H95.06C142.59,0,154.74,21,154.74,44.24Zm-34.33,0c0-11.06-6.87-16.59-26.67-16.59H33V60.83H93.74C113.54,60.83,120.41,55.3,120.41,44.24Z"/></g></g></svg>